<svg xmlns="http://www.w3.org/2000/svg" xmlns:xlink="http://www.w3.org/1999/xlink" width="249" height="291" viewBox="0 0 249 291">
  <defs>
    <clipPath id="clip-Person_3">
      <rect width="249" height="291"/>
    </clipPath>
  </defs>
  <g id="Person_3" data-name="Person 3" clip-path="url(#clip-Person_3)">
    <rect id="Rectangle_2" data-name="Rectangle 2" width="111" height="157" transform="translate(68 88)" fill="#683e37"/>
    <path id="Intersection_2" data-name="Intersection 2" d="M0,207.443c0-37.411,26.449-67.855,59.406-68.839V122.775c-13.061-7-22.561-21.075-24.6-37.836-4.636-.642-8.227-5.1-8.227-10.5V63.292c0-5.243-1.619-9.594,2.817-10.434V49.374C29.392,22.106,53.99,0,78.165,0s49.773,22.1,49.773,49.373v3.484c4.437.84,4.752,6.907,4.752,12.149l-2.935,9.431c0,5.4-3.59,9.859-8.227,10.5-2.042,16.761-11.542,30.839-24.6,37.836V138.6c32.958.985,59.406,31.428,59.406,68.839Z" transform="translate(47.217 54.668)" fill="#ffba9d"/>
    <path id="Path_33" data-name="Path 33" d="M-1072.92,291.99s49.488-4.473,64.334-16.887h0s-2.073,9.328,4.553,21.061c5.256,9.306,19.119,21.15,21.534,23,5.318,4.078,5.361-66.523-48.9-63.294-48.188,2.868-71.824,49.519-53.539,71.6.052,1.287,5.591,1.8,5.591,1.8Z" transform="translate(1159.174 -209.883)" fill="#683e37"/>
    <path id="Path_29" data-name="Path 29" d="M31.158,51.427V45.843s9.264,3.532,18.213,3.532c7.573,0,12.936-.911,19.35-3.958v6.8c-6.414,3.047-11.776,3.958-19.35,3.958S31.158,51.427,31.158,51.427Z" transform="translate(75.567 131.604)" fill="#101010" opacity="0.1"/>
    <path id="Intersection_1" data-name="Intersection 1" d="M0,68.137A68.834,68.834,0,0,1,59.078,0c0,.138-.008.279-.008.417,0,10.085,13.222,18.26,29.535,18.26S118.14,10.5,118.14.417c0-.1,0-.191,0-.287A68.842,68.842,0,0,1,176.33,68.137Z" transform="translate(36.335 193.125)" fill="#95bed6"/>
    <path id="Path_22" data-name="Path 22" d="M451.944-196.362c-19.268,0-34.945-10.265-34.945-22.882v-.138c1.566-.4,3.165-.761,4.755-1.091,1.92,11.235,13.872,18.781,29.745,18.781,15.809,0,28.433-7.64,30.7-18.579,1.631.353,3.208.73,4.69,1.118C486.816-206.583,471.139-196.362,451.944-196.362Z" transform="translate(-327.003 414.063)" fill="rgba(0,0,0,0.16)"/>
    <path id="Path_6" data-name="Path 6" d="M25.511,26c0,3.236,3.1,5.858,6.932,5.858S39.376,29.236,39.376,26" transform="translate(92.554 103.891)" fill="rgba(0,0,0,0.16)" fill-rule="evenodd"/>
    <path id="Path_7" data-name="Path 7" d="M26.653,31.4a5.1,5.1,0,1,0-5.29-5.1A5.2,5.2,0,0,0,26.653,31.4Z" transform="translate(78.446 87.25)" fill="rgba(0,0,0,0.6)" fill-rule="evenodd"/>
    <path id="Path_8" data-name="Path 8" d="M37.438,31.4a5.1,5.1,0,1,0-5.29-5.1A5.2,5.2,0,0,0,37.438,31.4Z" transform="translate(108.053 87.25)" fill="rgba(0,0,0,0.6)" fill-rule="evenodd"/>
    <path id="Path_9" data-name="Path 9" d="M22.075,27.036c3.452-4.684,12.914-7.31,21.065-5.379a1.768,1.768,0,0,0,2.133-1.246,1.7,1.7,0,0,0-1.292-2.057c-9.466-2.242-20.424.8-24.781,6.712a1.662,1.662,0,0,0,.416,2.371A1.806,1.806,0,0,0,22.075,27.036Z" transform="translate(69.555 82.78)" fill="rgba(0,0,0,0.6)"/>
    <path id="Path_11" data-name="Path 11" d="M24.088,31.356a13.644,13.644,0,0,0,27.168-.064,1.524,1.524,0,0,0-1.33-1.492H25.5A1.549,1.549,0,0,0,24.088,31.356Z" transform="translate(87.271 117)" fill="rgba(0,0,0,0.7)" fill-rule="evenodd"/>
    <path id="Intersection_7" data-name="Intersection 7" d="M676.8-198.582a4.9,4.9,0,0,1,4.1-2.213h.379a4.886,4.886,0,0,1,3.31,1.285,4.889,4.889,0,0,1,3.31-1.285h.379a4.9,4.9,0,0,1,4.1,2.211,13.451,13.451,0,0,1-7.791,2.477A13.449,13.449,0,0,1,676.8-198.582Z" transform="translate(-559.647 356.8)" fill="#ff506e"/>
    <path id="Path_10" data-name="Path 10" d="M54.153,27.036c-3.452-4.684-12.914-7.31-21.065-5.379a1.768,1.768,0,0,1-2.133-1.246,1.7,1.7,0,0,1,1.292-2.057c9.466-2.242,20.424.8,24.781,6.712a1.662,1.662,0,0,1-.416,2.371A1.806,1.806,0,0,1,54.153,27.036Z" transform="translate(104.981 82.78)" fill="rgba(0,0,0,0.6)"/>
    <g id="Group_1" data-name="Group 1" transform="translate(65.109 128.485)">
      <path id="Path_15" data-name="Path 15" d="M27.958,46.127s-1.425.979-1.425-3.872,9.031-9.212,19.363-9.212S54.48,46.127,54.48,46.127Z" transform="translate(11.416 2.322)" fill="#4a4a4a"/>
      <path id="Path_16" data-name="Path 16" d="M84.048,74.461H69.708l-.5-.115c-.2-.045-10.06-3.219-13.228-5.73S45.7,61.538,41.519,53.464a53.907,53.907,0,0,1-5.527-11.532,47.6,47.6,0,0,1-2.536-15.245c0-.247,0-.5.007-.749l4.516,4.379c0,.21-.006.418-.006.621a39.377,39.377,0,0,0,2.1,12.625,46.763,46.763,0,0,0,7.185,13.344,43.5,43.5,0,0,0,3.029,3.56c.379.4.674.692.871.877.1.093.167.157.21.2l.04.037,0,0,0,0,0,0,0,0,0,0,0,0,0,0,0,0,0-.007,0,.007,0-.007.129.117.119.128a26.574,26.574,0,0,0,4.931,4,37.481,37.481,0,0,0,7.257,3.564c.993.363,1.813.617,2.364.778.277.079.489.135.621.168.062.018.111.029.136.037l.023.007-.085.336.085-.336-.085.336.085-.336-.006,0,.006,0-.006,0h-.006l-1.01-.113,18.079.117,0,4.091Z" transform="translate(-33.455 -25.938)" fill="#4a4a4a"/>
    </g>
    <path id="Intersection_4" data-name="Intersection 4" d="M3.908,3.906A3.906,3.906,0,0,1,0,0H18.192a3.9,3.9,0,0,1-3.905,3.905Z" transform="translate(115.846 146.8)" fill="#fff"/>
    <rect id="Rectangle_3" data-name="Rectangle 3" width="15" height="173" transform="translate(166 88)" fill="#683e37"/>
    <g id="Group_2" data-name="Group 2" transform="translate(2.125 1.883)">
      <path id="Path_18" data-name="Path 18" d="M52.168,16.342h-11.2L40.679,64.8H52.168s11.765-1.694,11.7-26.26C63.933,22.757,58.976,17.862,52.168,16.342Z" transform="translate(131.95 78.814)" fill="#4a4a4a"/>
      <path id="Path_25" data-name="Path 25" d="M52.376,16.342h11.2L63.865,64.8H52.376s-11.765-1.694-11.7-26.26C40.611,22.757,45.568,17.862,52.376,16.342Z" transform="translate(10.271 78.814)" fill="#4a4a4a"/>
      <path id="Path_31" data-name="Path 31" d="M59,55.677C57.366,50.491,61.269,10.563,0,5.111V1.7C1.75,1.776,4.53.284,8.023.812A87.819,87.819,0,0,1,28.077,6.321a75.457,75.457,0,0,1,15.437,8.5C62.4,26.632,62.341,49.369,64.334,55.677Z" transform="translate(117.28 41.066)" fill="#4a4a4a"/>
      <path id="Path_30" data-name="Path 30" d="M59.005,0C57.366,5.187,61.269,45.114,0,50.566v4.3c1.75-.079,4.53.528,8.023,0a87.816,87.816,0,0,0,20.055-5.509,75.456,75.456,0,0,0,15.437-8.5C62.4,29.045,62.341,6.309,64.334,0Z" transform="translate(129.28 96.744) rotate(180)" fill="#4a4a4a"/>
    </g>
  </g>
</svg>
